<svg xmlns="http://www.w3.org/2000/svg" viewBox="0 0 560 560" width="560" height="560" role="img"><title>OmnySSH app icon (light)</title><rect width="560" height="560" rx="125" fill="#EAEFF5"/><g transform="translate(280 280)"><circle cx="-44.58" cy="-205.08" r="8.92" fill="#212121"/><circle cx="-26.75" cy="-205.08" r="8.92" fill="#212121"/><circle cx="-8.92" cy="-205.08" r="8.92" fill="#212121"/><circle cx="8.92" cy="-205.08" r="8.92" fill="#212121"/><circle cx="26.75" cy="-205.08" r="8.92" fill="#212121"/><circle cx="44.58" cy="-205.08" r="8.92" fill="#212121"/><circle cx="-98.08" cy="-187.25" r="8.92" fill="#212121"/><circle cx="-80.25" cy="-187.25" r="8.92" fill="#212121"/><circle cx="-62.42" cy="-187.25" r="8.92" fill="#212121"/><circle cx="62.42" cy="-187.25" r="8.92" fill="#212121"/><circle cx="80.25" cy="-187.25" r="8.92" fill="#212121"/><circle cx="98.08" cy="-187.25" r="8.92" fill="#212121"/><circle cx="-115.92" cy="-169.42" r="8.92" fill="#212121"/><circle cx="-98.08" cy="-169.42" r="8.92" fill="#212121"/><circle cx="-26.75" cy="-169.42" r="8.92" fill="#212121"/><circle cx="44.58" cy="-169.42" r="8.92" fill="#212121"/><circle cx="80.25" cy="-169.42" r="8.92" fill="#212121"/><circle cx="98.08" cy="-169.42" r="8.92" fill="#212121"/><circle cx="115.92" cy="-169.42" r="8.92" fill="#212121"/><circle cx="-133.75" cy="-151.58" r="8.92" fill="#212121"/><circle cx="133.75" cy="-151.58" r="8.92" fill="#212121"/><circle cx="-151.58" cy="-133.75" r="8.92" fill="#212121"/><circle cx="-133.75" cy="-133.75" r="8.92" fill="#212121"/><circle cx="8.92" cy="-133.75" r="8.92" fill="#212121"/><circle cx="44.58" cy="-133.75" r="8.92" fill="#212121"/><circle cx="80.25" cy="-133.75" r="8.92" fill="#212121"/><circle cx="115.92" cy="-133.75" r="8.92" fill="#212121"/><circle cx="151.58" cy="-133.75" r="8.92" fill="#212121"/><circle cx="-169.42" cy="-115.92" r="8.92" fill="#212121"/><circle cx="98.08" cy="-115.92" r="8.92" fill="#212121"/><circle cx="133.75" cy="-115.92" r="8.92" fill="#212121"/><circle cx="169.42" cy="-115.92" r="8.92" fill="#212121"/><circle cx="-187.25" cy="-98.08" r="8.92" fill="#212121"/><circle cx="-169.42" cy="-98.08" r="8.92" fill="#212121"/><circle cx="44.58" cy="-98.08" r="8.92" fill="#212121"/><circle cx="80.25" cy="-98.08" r="8.92" fill="#212121"/><circle cx="115.92" cy="-98.08" r="8.92" fill="#212121"/><circle cx="151.58" cy="-98.08" r="8.92" fill="#212121"/><circle cx="169.42" cy="-98.08" r="8.92" fill="#212121"/><circle cx="187.25" cy="-98.08" r="8.92" fill="#212121"/><circle cx="-187.25" cy="-80.25" r="8.92" fill="#212121"/><circle cx="133.75" cy="-80.25" r="8.92" fill="#212121"/><circle cx="169.42" cy="-80.25" r="8.92" fill="#212121"/><circle cx="187.25" cy="-80.25" r="8.92" fill="#212121"/><circle cx="-187.25" cy="-62.42" r="8.92" fill="#212121"/><circle cx="-62.42" cy="-62.42" r="8.92" fill="#212121"/><circle cx="8.92" cy="-62.42" r="8.92" fill="#212121"/><circle cx="44.58" cy="-62.42" r="8.92" fill="#212121"/><circle cx="80.25" cy="-62.42" r="8.92" fill="#212121"/><circle cx="115.92" cy="-62.42" r="8.92" fill="#212121"/><circle cx="151.58" cy="-62.42" r="8.92" fill="#212121"/><circle cx="169.42" cy="-62.42" r="8.92" fill="#212121"/><circle cx="187.25" cy="-62.42" r="8.92" fill="#212121"/><circle cx="-205.08" cy="-44.58" r="8.92" fill="#212121"/><circle cx="98.08" cy="-44.58" r="8.92" fill="#212121"/><circle cx="133.75" cy="-44.58" r="8.92" fill="#212121"/><circle cx="169.42" cy="-44.58" r="8.92" fill="#212121"/><circle cx="205.08" cy="-44.58" r="8.92" fill="#212121"/><circle cx="-205.08" cy="-26.75" r="8.92" fill="#212121"/><circle cx="-169.42" cy="-26.75" r="8.92" fill="#212121"/><circle cx="-26.75" cy="-26.75" r="8.92" fill="#212121"/><circle cx="44.58" cy="-26.75" r="8.92" fill="#212121"/><circle cx="80.25" cy="-26.75" r="8.92" fill="#212121"/><circle cx="115.92" cy="-26.75" r="8.92" fill="#212121"/><circle cx="151.58" cy="-26.75" r="8.92" fill="#212121"/><circle cx="187.25" cy="-26.75" r="8.92" fill="#212121"/><circle cx="205.08" cy="-26.75" r="8.92" fill="#212121"/><circle cx="-205.08" cy="-8.92" r="8.92" fill="#212121"/><circle cx="133.75" cy="-8.92" r="8.92" fill="#212121"/><circle cx="169.42" cy="-8.92" r="8.92" fill="#212121"/><circle cx="205.08" cy="-8.92" r="8.92" fill="#212121"/><circle cx="-205.08" cy="8.92" r="8.92" fill="#212121"/><circle cx="-169.42" cy="8.92" r="8.92" fill="#212121"/><circle cx="-133.75" cy="8.92" r="8.92" fill="#212121"/><circle cx="-62.42" cy="8.92" r="8.92" fill="#212121"/><circle cx="8.92" cy="8.92" r="8.92" fill="#212121"/><circle cx="44.58" cy="8.92" r="8.92" fill="#212121"/><circle cx="80.25" cy="8.92" r="8.92" fill="#212121"/><circle cx="115.92" cy="8.92" r="8.92" fill="#212121"/><circle cx="151.58" cy="8.92" r="8.92" fill="#212121"/><circle cx="169.42" cy="8.92" r="8.92" fill="#212121"/><circle cx="187.25" cy="8.92" r="8.92" fill="#212121"/><circle cx="205.08" cy="8.92" r="8.92" fill="#212121"/><circle cx="-205.08" cy="26.75" r="8.92" fill="#212121"/><circle cx="26.75" cy="26.75" r="8.92" fill="#212121"/><circle cx="98.08" cy="26.75" r="8.92" fill="#212121"/><circle cx="133.75" cy="26.75" r="8.92" fill="#212121"/><circle cx="169.42" cy="26.75" r="8.92" fill="#212121"/><circle cx="205.08" cy="26.75" r="8.92" fill="#212121"/><circle cx="-205.08" cy="44.58" r="8.92" fill="#212121"/><circle cx="-169.42" cy="44.58" r="8.92" fill="#212121"/><circle cx="-133.75" cy="44.58" r="8.92" fill="#212121"/><circle cx="-98.08" cy="44.58" r="8.92" fill="#212121"/><circle cx="-26.75" cy="44.58" r="8.92" fill="#212121"/><circle cx="8.92" cy="44.58" r="8.92" fill="#212121"/><circle cx="44.58" cy="44.58" r="8.92" fill="#212121"/><circle cx="80.25" cy="44.58" r="8.92" fill="#212121"/><circle cx="115.92" cy="44.58" r="8.92" fill="#212121"/><circle cx="133.75" cy="44.58" r="8.92" fill="#212121"/><circle cx="151.58" cy="44.58" r="8.92" fill="#212121"/><circle cx="169.42" cy="44.58" r="8.92" fill="#212121"/><circle cx="187.25" cy="44.58" r="8.92" fill="#212121"/><circle cx="205.08" cy="44.58" r="8.92" fill="#212121"/><circle cx="-187.25" cy="62.42" r="8.92" fill="#212121"/><circle cx="62.42" cy="62.42" r="8.92" fill="#212121"/><circle cx="98.08" cy="62.42" r="8.92" fill="#212121"/><circle cx="133.75" cy="62.42" r="8.92" fill="#212121"/><circle cx="169.42" cy="62.42" r="8.92" fill="#212121"/><circle cx="187.25" cy="62.42" r="8.92" fill="#212121"/><circle cx="-187.25" cy="80.25" r="8.92" fill="#212121"/><circle cx="-169.42" cy="80.25" r="8.92" fill="#212121"/><circle cx="-133.75" cy="80.25" r="8.92" fill="#212121"/><circle cx="-98.08" cy="80.25" r="8.92" fill="#212121"/><circle cx="-62.42" cy="80.25" r="8.92" fill="#212121"/><circle cx="-26.75" cy="80.25" r="8.92" fill="#212121"/><circle cx="8.92" cy="80.25" r="8.92" fill="#212121"/><circle cx="44.58" cy="80.25" r="8.92" fill="#212121"/><circle cx="80.25" cy="80.25" r="8.92" fill="#212121"/><circle cx="98.08" cy="80.25" r="8.92" fill="#212121"/><circle cx="115.92" cy="80.25" r="8.92" fill="#212121"/><circle cx="133.75" cy="80.25" r="8.92" fill="#212121"/><circle cx="151.58" cy="80.25" r="8.92" fill="#212121"/><circle cx="169.42" cy="80.25" r="8.92" fill="#212121"/><circle cx="187.25" cy="80.25" r="8.92" fill="#212121"/><circle cx="-187.25" cy="98.08" r="8.92" fill="#212121"/><circle cx="-169.42" cy="98.08" r="8.92" fill="#212121"/><circle cx="-151.58" cy="98.08" r="8.92" fill="#212121"/><circle cx="-115.92" cy="98.08" r="8.92" fill="#212121"/><circle cx="-44.58" cy="98.08" r="8.92" fill="#212121"/><circle cx="-8.92" cy="98.08" r="8.92" fill="#212121"/><circle cx="26.75" cy="98.08" r="8.92" fill="#212121"/><circle cx="62.42" cy="98.08" r="8.92" fill="#212121"/><circle cx="98.08" cy="98.08" r="8.92" fill="#212121"/><circle cx="133.75" cy="98.08" r="8.92" fill="#212121"/><circle cx="151.58" cy="98.08" r="8.92" fill="#212121"/><circle cx="169.42" cy="98.08" r="8.92" fill="#212121"/><circle cx="187.25" cy="98.08" r="8.92" fill="#212121"/><circle cx="-169.42" cy="115.92" r="8.92" fill="#212121"/><circle cx="-133.75" cy="115.92" r="8.92" fill="#212121"/><circle cx="-98.08" cy="115.92" r="8.92" fill="#212121"/><circle cx="-62.42" cy="115.92" r="8.92" fill="#212121"/><circle cx="-26.75" cy="115.92" r="8.92" fill="#212121"/><circle cx="8.92" cy="115.92" r="8.92" fill="#212121"/><circle cx="44.58" cy="115.92" r="8.92" fill="#212121"/><circle cx="62.42" cy="115.92" r="8.92" fill="#212121"/><circle cx="80.25" cy="115.92" r="8.92" fill="#212121"/><circle cx="98.08" cy="115.92" r="8.92" fill="#212121"/><circle cx="115.92" cy="115.92" r="8.92" fill="#212121"/><circle cx="133.75" cy="115.92" r="8.92" fill="#212121"/><circle cx="151.58" cy="115.92" r="8.92" fill="#212121"/><circle cx="169.42" cy="115.92" r="8.92" fill="#212121"/><circle cx="-151.58" cy="133.75" r="8.92" fill="#212121"/><circle cx="-115.92" cy="133.75" r="8.92" fill="#212121"/><circle cx="-80.25" cy="133.75" r="8.92" fill="#212121"/><circle cx="-44.58" cy="133.75" r="8.92" fill="#212121"/><circle cx="-8.92" cy="133.75" r="8.92" fill="#212121"/><circle cx="26.75" cy="133.75" r="8.92" fill="#212121"/><circle cx="62.42" cy="133.75" r="8.92" fill="#212121"/><circle cx="98.08" cy="133.75" r="8.92" fill="#212121"/><circle cx="115.92" cy="133.75" r="8.92" fill="#212121"/><circle cx="133.75" cy="133.75" r="8.92" fill="#212121"/><circle cx="151.58" cy="133.75" r="8.92" fill="#212121"/><circle cx="-133.75" cy="151.58" r="8.92" fill="#212121"/><circle cx="-115.92" cy="151.58" r="8.92" fill="#212121"/><circle cx="-98.08" cy="151.58" r="8.92" fill="#212121"/><circle cx="-62.42" cy="151.58" r="8.92" fill="#212121"/><circle cx="-44.58" cy="151.58" r="8.92" fill="#212121"/><circle cx="-26.75" cy="151.58" r="8.92" fill="#212121"/><circle cx="8.92" cy="151.58" r="8.92" fill="#212121"/><circle cx="26.75" cy="151.58" r="8.92" fill="#212121"/><circle cx="44.58" cy="151.58" r="8.92" fill="#212121"/><circle cx="62.42" cy="151.58" r="8.92" fill="#212121"/><circle cx="80.25" cy="151.58" r="8.92" fill="#212121"/><circle cx="98.08" cy="151.58" r="8.92" fill="#212121"/><circle cx="115.92" cy="151.58" r="8.92" fill="#212121"/><circle cx="133.75" cy="151.58" r="8.92" fill="#212121"/><circle cx="-115.92" cy="169.42" r="8.92" fill="#212121"/><circle cx="-98.08" cy="169.42" r="8.92" fill="#212121"/><circle cx="-80.25" cy="169.42" r="8.92" fill="#212121"/><circle cx="-44.58" cy="169.42" r="8.92" fill="#212121"/><circle cx="-8.92" cy="169.42" r="8.92" fill="#212121"/><circle cx="8.92" cy="169.42" r="8.92" fill="#212121"/><circle cx="26.75" cy="169.42" r="8.92" fill="#212121"/><circle cx="62.42" cy="169.42" r="8.92" fill="#212121"/><circle cx="80.25" cy="169.42" r="8.92" fill="#212121"/><circle cx="98.08" cy="169.42" r="8.92" fill="#212121"/><circle cx="115.92" cy="169.42" r="8.92" fill="#212121"/><circle cx="-98.08" cy="187.25" r="8.92" fill="#212121"/><circle cx="-80.25" cy="187.25" r="8.92" fill="#212121"/><circle cx="-62.42" cy="187.25" r="8.92" fill="#212121"/><circle cx="-44.58" cy="187.25" r="8.92" fill="#212121"/><circle cx="-26.75" cy="187.25" r="8.92" fill="#212121"/><circle cx="-8.92" cy="187.25" r="8.92" fill="#212121"/><circle cx="8.92" cy="187.25" r="8.92" fill="#212121"/><circle cx="26.75" cy="187.25" r="8.92" fill="#212121"/><circle cx="44.58" cy="187.25" r="8.92" fill="#212121"/><circle cx="62.42" cy="187.25" r="8.92" fill="#212121"/><circle cx="80.25" cy="187.25" r="8.92" fill="#212121"/><circle cx="98.08" cy="187.25" r="8.92" fill="#212121"/><circle cx="-44.58" cy="205.08" r="8.92" fill="#212121"/><circle cx="-26.75" cy="205.08" r="8.92" fill="#212121"/><circle cx="-8.92" cy="205.08" r="8.92" fill="#212121"/><circle cx="8.92" cy="205.08" r="8.92" fill="#212121"/><circle cx="26.75" cy="205.08" r="8.92" fill="#212121"/><circle cx="44.58" cy="205.08" r="8.92" fill="#212121"/></g></svg>
